<?xml version="1.0" encoding="utf-8"?>
<!-- Generator: Adobe Illustrator 20.1.0, SVG Export Plug-In . SVG Version: 6.00 Build 0)  -->
<svg version="1.1" id="Livello_1" xmlns="http://www.w3.org/2000/svg" xmlns:xlink="http://www.w3.org/1999/xlink" x="0px" y="0px"
	 viewBox="0 0 494.1 232.6" style="enable-background:new 0 0 494.1 232.6;" xml:space="preserve">
<style type="text/css">
	.st0{fill:#EB9F00;}
	.st1{fill:#FFFFFF;}
	.st2{fill:none;stroke:#FFFFFF;stroke-width:5.5;stroke-miterlimit:10;}
	.st3{fill:none;stroke:#EB9F00;stroke-width:5;stroke-miterlimit:10;}
	.st4{fill:none;stroke:#343A40;stroke-width:5;stroke-miterlimit:10;}
	.st5{fill:none;stroke:#636464;stroke-width:5;stroke-miterlimit:10;}
</style>
<g id="Ebene_1_2_">
	<ellipse class="st0" cx="111.1" cy="116.3" rx="110.8" ry="116.3"/>
	<g>
		<g>
			<path class="st1" d="M30.9,122.7c6.1,0,12.3,0,18.4,0c1.3,0,2.6-0.9,2.9-2.2c3-11.3,6-22.5,9-33.8c-1.9,0-3.9,0-5.8,0
				c6.7,21.2,13.5,42.4,20.2,63.6c0.9,2.9,4.9,2.8,5.8,0c8.2-24.8,16.4-49.6,24.6-74.4c-2-0.3-3.9-0.5-5.9-0.8
				c2.1,20.8,4.2,41.6,6.3,62.4c0.3,2.6,4.2,4.5,5.6,1.5c4.2-9.3,8.5-18.7,12.7-28c-1.7,0-3.5,0-5.2,0c1.6,3.5,3.3,6.9,4.9,10.4
				c0.4,0.9,1.6,1.5,2.6,1.5c6.3,0,12.5,0,18.8,0c3.9,0,3.9-6,0-6c-6.3,0-12.5,0-18.8,0c0.9,0.5,1.7,1,2.6,1.5
				c-1.6-3.5-3.3-6.9-4.9-10.4c-0.9-1.9-4.3-2-5.2,0c-4.2,9.3-8.5,18.7-12.7,28c1.9,0.5,3.7,1,5.6,1.5c-2.1-20.8-4.2-41.6-6.3-62.4
				c-0.3-3.3-4.8-4.2-5.9-0.8c-8.2,24.8-16.4,49.6-24.6,74.4c1.9,0,3.9,0,5.8,0c-6.7-21.2-13.5-42.4-20.2-63.6c-0.9-2.8-5-3-5.8,0
				c-3,11.3-6,22.5-9,33.8c1-0.7,1.9-1.5,2.9-2.2c-6.1,0-12.3,0-18.4,0C27.1,116.7,27.1,122.7,30.9,122.7L30.9,122.7z"/>
		</g>
	</g>
	<path class="st2" d="M147.8,119.2c14.1,0,25.7,0,39.9,0c0.1-5.8,0.1-11.1,0-14.8c-0.2-5.7-0.6-7.6-1.6-9.6
		c-2.2-4.5-6.1-6.7-7.8-7.7c-0.5-0.3-9-4.8-18.3-1.5c-1.4,0.5-4.5,1.7-7.3,4.6c-0.9,1.1-1.9,2.6-2.7,4.5c-1.1,2.4-1.5,4.6-1.6,6.2
		l0,0l0,0l0,0c0,0-0.8,22.6-0.4,30.7c0.2,5,0.5,9.2,3.2,13.6c0.7,1.1,4.4,7,11.1,8.5c2.2,0.5,4,0.3,5.9,0.2
		c2.5-0.2,7.8-0.7,12.1-3.9c6.4-4.9,6.9-13.4,6.9-14.8"/>
	<path class="st5" d="M293.3,120.2c14.1,0,25.7,0,39.9,0c0.1-5.8,0.1-11.1,0-14.8c-0.2-5.7-0.6-7.6-1.6-9.6
		c-2.2-4.5-6.1-6.7-7.8-7.7c-0.5-0.3-9-4.8-18.3-1.5c-1.4,0.5-4.5,1.7-7.3,4.6c-0.9,1.1-1.9,2.6-2.7,4.5c-1.1,2.4-1.5,4.6-1.6,6.2
		l0,0l0,0l0,0c0,0-0.8,22.6-0.4,30.7c0.2,5,0.5,9.2,3.2,13.6c0.7,1.1,4.4,7,11.1,8.5c2.2,0.5,4,0.3,5.9,0.2
		c2.5-0.2,7.8-0.7,12.1-3.9c6.4-4.9,6.9-13.4,6.9-14.8"/>
	<path class="st5" d="M450.5,120.2c14.1,0,25.7,0,39.9,0c0.2-6,0.1-11.1,0-14.8c-0.2-5.7-0.6-7.6-1.6-9.6c-2.2-4.5-6.1-6.7-7.8-7.7
		c-0.5-0.3-9-4.8-18.3-1.5c-1.4,0.5-4.5,1.7-7.3,4.6c-0.9,1.1-1.9,2.6-2.7,4.5c-1.1,2.4-1.5,4.6-1.6,6.2l0,0l0,0l0,0
		c0,0-0.8,22.6-0.4,30.7c0.2,5,0.5,9.2,3.2,13.6c0.7,1.1,4.4,7,11.1,8.5c2.2,0.5,4,0.3,5.9,0.2c2.5-0.2,7.8-0.7,12.1-3.9
		c6.4-4.9,6.9-13.4,6.9-14.8"/>
	<path class="st5" d="M277.9,101.2c-0.1-1.6-0.6-6.8-4.7-11.2c-5.1-5.5-12-5.5-13.6-5.5c-1.8,0-6.6,0-11.1,3.4
		c-1,0.7-5.9,4.6-6.7,11.3c-0.2,1.3-0.6,5.4,1.8,9.3c0.4,0.7,1.7,2.7,5.2,4.9c4,2.5,6.1,2.3,13.3,4.6c9.3,2.9,11.7,5,12.9,6.2
		c2.3,2.3,3.3,4.7,3.6,5.4c2,4.7,1.1,9,0.6,11.4c-0.6,2.9-1.9,8.7-7,12.2c-3.4,2.3-7.1,2.5-10.1,2.7c-2.1,0.1-4.9,0.2-8.4-0.9
		c-1.7-0.6-5.9-2.3-9-6.6c-2.3-3.2-3.1-6.1-3.3-8.1c-0.1-0.7-0.1-1.3-0.1-1.7"/>
	<path class="st5" d="M434.9,101.2c-0.1-1.6-0.6-6.8-4.7-11.2c-5.1-5.5-12-5.5-13.6-5.5c-1.8,0-6.6,0-11.1,3.4
		c-1,0.7-5.9,4.6-6.7,11.3c-0.2,1.3-0.6,5.4,1.8,9.3c0.4,0.7,1.7,2.7,5.2,4.9c4,2.5,6.1,2.3,13.3,4.6c9.3,2.9,11.7,5,12.9,6.2
		c2.3,2.3,3.3,4.7,3.6,5.4c2,4.7,1.1,9,0.6,11.4c-0.6,2.9-1.9,8.7-7,12.2c-3.4,2.3-7.1,2.5-10.1,2.7c-2.1,0.1-4.9,0.2-8.4-0.9
		c-1.7-0.6-5.9-2.3-9-6.6c-2.3-3.2-3.1-6.1-3.3-8.1c-0.1-0.7-0.1-1.3-0.1-1.7"/>
	<path class="st5" d="M345,153.9v-47.8c0-3.8,1.1-8.6,3.3-11.8c1.4-2,3.4-4.1,6.1-5.8c2.4-1.5,9-5,16.8-2.8c5.2,1.5,8.6,4.9,10.8,8
		c2.1,3.1,3.2,8.8,3.2,12.6v47.6"/>
</g>
</svg>
